/* XPM */
static char *East64[] = {
/* columns rows colors chars-per-pixel */
"64 64 256 2",
"   c #440F4C",
".  c #4C0E54",
"X  c #4D0D57",
"o  c #4C1054",
"O  c #4F1358",
"+  c #500E57",
"@  c #530E5B",
"#  c #580E5F",
"$  c #53115B",
"%  c #54115B",
"&  c #45104C",
"*  c #560D60",
"=  c #5B0E64",
"-  c #5E0C69",
";  c #5C1164",
":  c #5B1764",
">  c #620D6D",
",  c #660C72",
"<  c #6A0D75",
"1  c #6D0C7A",
"2  c #601167",
"3  c #64116B",
"4  c #66166D",
"5  c #6C1273",
"6  c #6E1179",
"7  c #691972",
"8  c #710D7D",
"9  c #701177",
"0  c #74117C",
"q  c #731A7C",
"w  c #6B2274",
"e  c #73277C",
"r  c #750C83",
"t  c #7A078C",
"y  c #790D85",
"u  c #7C0B8B",
"i  c #7F0A90",
"p  c #7F0691",
"a  c #761181",
"s  c #7B1284",
"d  c #7E1289",
"f  c #7C1C85",
"g  c #7B1986",
"h  c #7D2B86",
"j  c #7C2885",
"k  c #820D8E",
"l  c #830695",
"z  c #860699",
"x  c #840B93",
"c  c #870998",
"v  c #89069C",
"b  c #8A0D95",
"n  c #8C0B9B",
"m  c #83138C",
"M  c #82188B",
"N  c #801587",
"B  c #861291",
"V  c #8B1394",
"C  c #8D129A",
"Z  c #8C1994",
"A  c #8E1B9C",
"S  c #861994",
"D  c #920D9D",
"F  c #92129C",
"G  c #92199A",
"H  c #8E06A2",
"J  c #8E08A0",
"K  c #9207A5",
"L  c #9506AA",
"P  c #940BA3",
"I  c #960AA9",
"U  c #9A07AD",
"Y  c #990DA5",
"T  c #9C0BAB",
"R  c #9D06B2",
"E  c #9E0AB2",
"W  c #9513A2",
"Q  c #9B11A4",
"!  c #9C13AB",
"~  c #9B1BAA",
"^  c #981CA4",
"/  c #9E10B0",
"(  c #832A8C",
")  c #8B2994",
"_  c #8B2496",
"`  c #84318D",
"'  c #8B3294",
"]  c #94299D",
"[  c #94339C",
"{  c #943B9D",
"}  c #9B2AA5",
"|  c #9E2BAA",
" . c #9924A6",
".. c #9A37A3",
"X. c #A10DAD",
"o. c #A207B4",
"O. c #A505BB",
"+. c #A40BB3",
"@. c #AA06BD",
"#. c #A90CB5",
"$. c #AC0CBA",
"%. c #A608BB",
"&. c #A212AC",
"*. c #A21BAE",
"=. c #A214B3",
"-. c #AB14BD",
";. c #AB1BBC",
":. c #A618B5",
">. c #B20CBE",
",. c #B118BC",
"<. c #A228AD",
"1. c #A62BB2",
"2. c #AA2CB6",
"3. c #AD2CBA",
"4. c #A723B5",
"5. c #A33DAB",
"6. c #A233AC",
"7. c #AC3CB5",
"8. c #AA36B5",
"9. c #B12BBB",
"0. c #B334BE",
"q. c #B33CBD",
"w. c #AD05C1",
"e. c #AD19C0",
"r. c #B40AC3",
"t. c #BA0BCA",
"y. c #B506C8",
"u. c #BC05D2",
"i. c #B213C3",
"p. c #B31CC4",
"a. c #BC16CC",
"s. c #BD12D2",
"d. c #B524C4",
"f. c #B42BC3",
"g. c #BB24CB",
"h. c #BC2BCB",
"j. c #B927C6",
"k. c #B633C2",
"l. c #B932C5",
"z. c #BD32CA",
"x. c #BA3BC5",
"c. c #9C40A4",
"v. c #A341AC",
"b. c #AC43B5",
"n. c #AD48B5",
"m. c #B549BD",
"M. c #B244BB",
"N. c #BB43C4",
"B. c #B947C2",
"V. c #BC57C3",
"C. c #C10BCC",
"Z. c #C105D4",
"A. c #C40AD3",
"S. c #CB0ADB",
"D. c #C907D9",
"F. c #C719D7",
"G. c #D006DE",
"H. c #C013CB",
"J. c #CD04E0",
"K. c #D50AE2",
"L. c #D519E4",
"P. c #C02CCD",
"I. c #C123CC",
"U. c #C52DD3",
"Y. c #CC23DC",
"T. c #C926D6",
"R. c #C133CE",
"E. c #C13CCC",
"W. c #C535D2",
"Q. c #C935D5",
"!. c #CE35DC",
"~. c #CA3CD5",
"^. c #CD3BDA",
"/. c #C63CD3",
"(. c #D12ADE",
"). c #D23DDD",
"_. c #D134DC",
"`. c #CE2BE1",
"'. c #D529E3",
"]. c #D535E2",
"[. c #D63CE4",
"{. c #DC38E8",
"}. c #E209EC",
"|. c #E411ED",
" X c #E239EC",
".X c #E83FF0",
"XX c #E52CEE",
"oX c #C24ACC",
"OX c #C343CD",
"+X c #C642D1",
"@X c #CB43D5",
"#X c #CB4ED4",
"$X c #CE4CD9",
"%X c #CD42D9",
"&X c #C454CC",
"*X c #CC53D4",
"=X c #CD59D5",
"-X c #D243DD",
";X c #D24BDD",
":X c #D454DC",
">X c #D45BDC",
",X c #D644E1",
"<X c #D64BE2",
"1X c #DA44E4",
"2X c #DA4CE4",
"3X c #DF4CE9",
"4X c #DD43E9",
"5X c #DC54E6",
"6X c #DD5CE5",
"7X c #DF5DE8",
"8X c #DC53E6",
"9X c #D668DC",
"0X c #DC65E2",
"qX c #E34CED",
"wX c #E341ED",
"eX c #EB4CF3",
"rX c #E843F1",
"tX c #E354EC",
"yX c #E45CEC",
"uX c #E85AEF",
"iX c #E65AF1",
"pX c #EA54F3",
"aX c #EC5CF4",
"sX c #E756F1",
"dX c #F24DF7",
"fX c #F159F7",
"gX c #E462EC",
"hX c #E96AEE",
"jX c #E864EE",
"kX c #EC63F4",
"lX c #ED6AF4",
"zX c #EC63F5",
"xX c #E676EC",
"cX c #EE74F3",
"vX c #EF7CF2",
"bX c #F165F9",
"nX c #F16BF7",
"mX c #F46DFB",
"MX c #F66AFB",
"NX c #F173F6",
"BX c #F573FB",
"VX c #F17BF5",
"CX c #F67CFA",
"ZX c #F974FD",
"AX c #F87CFC",
"SX c #F682FA",
"DX c #F68BFA",
"FX c #F983FC",
"GX c #F98CFC",
"HX c #F080F5",
"JX c #FA93FC",
"KX c #FA9BFC",
"LX c #F491F7",
"PX c #EA85ED",
"IX c #FBA5FC",
"UX c #FBB1FC",
/* pixels */
"3 4 5 5 6 9 8 r B v x x k k 3.3.J C B d s s a a a r r y u i  .5Xc c c b x x b b C n n n x x l b.; 3 3 < 1 r ^ j * @ ; ; ; ; 3 3 ",
"5 5 9 9 0 1 r , S x k d s > 6.Y I W C b x B B m m x u k i c z @XJ H Y Y Y Y Y Q I Y Y Y Y J W 5.0 0 8 , r | 7X7 * - 3 3 4 5 4 4 ",
"9 8 0 a s r r , S x m 6 @ j oXo.I J c J c n n n n n b b v H I 2Xd.E o.#.+.Y J J Y +.%.%.+.K E.8.x d , s N.nXmX: 3 5 5 5 5 9 9 9 ",
"0 s s N y r , 6 } , * : ) *XsXi./ J i i y y t t i i n W ~ ;.Q.BXHX8XF.H.$.I v J I T $.E Y ;XmX2.n t C N.8.| 5Xq 0 6 9 9 0 0 0 8 ",
"M m m m y > , S 7.a j b.0XGXBX4Xz.g.e.*.~ ^ ^ ^ ~ 4./.zXlXnXmXDXKXJXZXwXT.p.P ! / / / f.8X8XzXl.J 4.@X%Xg 6  .5.9 y y 0 s s s N ",
"m V V 8 > > d M.6XV.<XcXKXFX X].[.3X<X+Xz.z.z.z.%XjX0X} > - 7 ..m.gXFXDXNX<XQ.W.W.Q.8X:X_ | ,XkX^.2XfX~.<.] 1.6X> N N N m m m m ",
"V 8 , > , _ q.:X$X<XBXUXCXL.u.y.O.R e.z.8XzXkXkXmXOXs 1 , - * = 5 0 Z 6.V.xXbXzXlXnXtXf.k.^.iXnXnXgX7X8X3XtXaXmX) y m V V b C V ",
"= = > 0 } x.5Xq.| Q.SXCXL.u.w.R L L H H H I l.zX<Xu r 1 , , - = 2 5 5 3 # O w b.lXmXaXpXiXN.f.^ c c p i t u i } M.1 k m k y 9 > ",
"- q ] ..N.jXyX~.!.1XCX[.y.R R H v z l c z c v 4.yXi u r 1 < > > 2 = # # @ @ + + = 8.yX2.B i c i i i u u y y 8 8 ] Z 8 1 , > > > ",
") | q.5XmXOXr x U O.!.s.R L H z l x i u u u u k 6XW x u r 1 < , > 2 = = # # # = = # } u i i i i i u u t y y 8 0 8 M.8 8 r r 8 N ",
"x.#X$X1.2Xa y z L R !.R H v p p u t y y y y t u 1.x.x x u r 8 1 < < > > > 2 > 2 > - S y u u u u u u y y r r 0 0 0 6.2.D F ~ 4.8.",
"gXzX+X@X_ y x n L U %XH v i u t r y 8 y y y y u g 5Xv n x x k u N 0 8 1 , , , , , , d y y u u u d u r s y 0 0 0 a m yXl.R.E./.;X",
"..g 7 , , x n I E E -Xv c i y y y a r a a a a m d 6X=.J P n c b x x k N N r 8 8 1 1 d a y y y y a s a r s 0 0 y N V OXaX3XtXlXhX",
"s 1 < , < c Y +.o.h.@Xn i y y s r a 0 a 0 a m y  .6X-XE H Y Y F D F n b b x k k u t g r a a a a a a a a 0 0 s N m F *.ZXZXJXnX^ ",
"V s 8 8 1 P #.#.$.1XE.P x u y r a a 0 s s s 0 g x.NXGXQ.T P T X.Y Y Y Y D D n n n x A < a a a s a a a a 0 0 0 N m Q &.jXKXAXP.F ",
"C k y r y c X.$.F.nXU.+.F d s s a a s s r 2 7 5.hXIXKXDXU.X.v T +.#.+.+.X.X.Y Y v x | 3 a a a y d a y a s 0 N N V F &.~.KX;X#.&.",
"F V k k l n +.F. XKX{.>.&.V N s s N 0 4 + w c.xXKXhX(.yXHXR.:.L U @.r.r.>.U K n Y &.oX5 0 0 s s s d d s 0 N N M Z V Q 4.nX>.>.&.",
"F D b v n L t.'.MXUXCXH.D s 3 2 2 # o % ` n.lXHXP.+.X.U l.nX).T.t.y.>.$.o.=.;.d.P.tXkX0 9 s s s m m m m B 0 N m Z V G V 6XQ &.&.",
"Q D D v P #.).SXIXLXJXHX@X} q 4 7 e ` c.=XmXmX:.Y D n F G yXZXmXpX X(.T.Q.W.^.tX2X^.-Xq.s 0 M m m M M m N m N N M Z M N >XF #.&.",
"&.Y L U o.8XAXuXXX}.|..XMXAXNX>X&X&X=X:X/.aXlXn x b b b R.ZXJXJXFXFXBXkXpXkXaX-Xx.l.P.uX .s s M m S S S Z m M M N M M 0 *XF #.&.",
"X.E o.O.E.mX9.#.C.A.A.A.2XKXAXmXSXJXFXOX3.tXlXx b b k *.kXGXJXFXNXyXgXgXmXmXbXqX%XQ._.MX:XG 9 s Z Z Z Z Z Z Z M M M M 7 oX<.#.#.",
"E E +.z.mXN.y b X.$.>.I.LXBX].F.a.U.FXnX~.pXmXk y k ^ @XBXJXnXT.>.O.U K Y j.5XBXZXVXAXJXFX0.M 2 g V G Z Z Z Z M M M g 2 b.E.X.+.",
";.g.).zXmXq < 8 k D *.HXJX'.y.O.R L 9.ZXfXdXMX&.C G E.NXGX1Xw.o.L v z v v v v &.j.I.(..XFXjX[ 7 2 N m V V Z Z Z M m 5 $ 5.5XU X.",
"yXzXmXmXmXgX] 8 r  .cXGX{.u.O.o.J c n @XZXbXZX).0.*XnXNXg.o.I v l x x k k x z n Y +.>.C.!.ZX:X..q 4 # % % # ; 2 4 2 $ $ { mX-X2X",
"e o O e v.>XMXhX*XSXGXpXD.>.o.D x k b 9.GXFXMXZXZXBXtX:.K v l i u u u y u t u x x J T o.o.-XBX*X7...j w : : % : : 2 3 2 n.BXgXv.",
"    & & & # 9 7.hXGXSX}.D.>.o.n k 8 m ^ GXMX X8XZXtXX.n c i u y t y r y r r y y u k b D P o.lXmX0X=Xv.' ` h h h ( ( ( 5.mX&X%   ",
". . & o + ; , k Q -XAXrXA.#.X.b y 0 , 5.GXZXqXkXnX+.K z i u y y r 8 8 8 8 y y y u k x b P $.vXGXmXbXmXlX0X&Xm.M.7.q.=XGXB.3 # O ",
"+ . O O # 2 9 N Q #.).SXhX,.D b s 0 % 9XhX/.MXZX~.L v k t y y y 8 8 8 0 0 r 8 y y u k n o.^.JXnXA.R E :.h.-XqXmXFXAXJX*Xr 0 3 ; ",
"3 ; # % ; 3 9 N F Q #.R.CXCX^ m N 9 ] ZXOX1.uXMX;.D x u y y y 8 9 8 0 0 a a a s s u x Y ,.GXlXF.R c i i x L w.D.eXIXFX&.V s 9 3 ",
"9 5 5 3 2 3 8 0 m F D D 0.MX:X9 q oXVXZXQ.R.aXMXo.n k y y r 0 0 0 0 0 0 0 0 a s s d V ! lXAXF.o.c u 1 r r b o.t.K.JX0XF F m 0 9 ",
"0 0 0 9 9 9 9 y k k b b b 9.MXxXDXIXCXaXpXpXbXaXo.P x u y y 0 0 0 0 0 0 5 5 , 3 > s  .yXJX{.y.P x a 6 6 0 m Y @.D.DXE.Y F m m a ",
"m m s a 0 a 8 8 y k k b b b E.LXMX{.S.Z.Z.S.pXZX$.Y n k y 8 0 0 0 0 0 ; o $ 2 e ' M.jXKXGXY.@.F m 0 5 5 0 s n #.u.SX<.Q D V b m ",
"V V m m m d a r r k k b n *.j.jXA.@.o.U o.@.].KX5XX.Y b m a a 0 a 0 % & 4 e h c.m.hXFXFXKXF.U &.C m s 0 0 m n #.t.nXC Y W W C C ",
"F D F F b B u , 1 r k n :.R.2XqXy.K k k x P i.CXIXyX=.b 8 > > ; # . O e ` c.n.>XMX<Xf.:XIXY.@.T &.F V Z m B n U I.7Xp c J T Y n ",
"Y Y F Y P n n r 8 x ^ 9.Q.qXAXwX$.n 8 9 8 x Y i.tXIXDX#X6.) j ( ' c.n.V.>XjXNXBXtX3.0.tXGXkXF.r.#.X.F N 6 a A d.qX8X4.C t p P Y ",
"u b n n n P i i G 2.OXyXnXDXUX{.#.b 0 3 3 y n #.H.GXKXGXKXGXZXMXmXmXyX<X$X8XmXmXMXmXkXkXmXGXmXXX'.I.4.<.1.k.~.qXbXmX;Xf.<.A u r ",
"A B x x c C  .0.7XmXMXFXnXFXIX].#.b 8 3 3 1 y J r.FX'.D.#.Y #.(.MXtX3.1.x.aXmXlXW.&.U @.(.BXUXBXdXdXqX2XtXyXbXmXiX3XzXzX<XE.3.| ",
":X+Xx.x.x.+X5XmXmXzX[.S.J. XKX`.#.b 0 9 = X > l i.MXD.#.b s V >.4XzXqXiXmXzXx.c k k b U >.G.fXUXSXZXZXVXAXyXR.X.R O.y.`.nXmXnX7X",
"j 6 A x.yXmXmXjXf.J U %.u.'.FXY.o.D 8 = X * , C Q.MXA.P m N b >.pXFXmXnX/.J t r 1 1 8 D #.A.}.dXIXIXDXpXa.P b b c H R y.[.BX6X..",
"1 r y u z 6XyXn u 8 u c o.F.MX`.O.l 8 > > < i f.aXMXqX4.V k D H.AXFXqXt.U l r , > 3 < k D >.D.}.dXKXAXC.X.b k m r u p e.kX] < 1 ",
"x v v J H yXk.r , > , r b ,.mX`.y.U z p p  .k.M.} [ 6.q.E.).).fXFXrXJ.r.Y k 1 2 # = 2 9 V X.r.D.L.FXmXt.Q B d d a r r z.6.y i B ",
"Y E I H ;.nXA r > ; ; < u =.mX[.u.u.i.d 7 @ * * 2 > 0 k D &.1XSXJXXXK.r.X.k 9 2 = # 2 3 0 n X.y. XZXkXy.Y m a r 6 > r $XA H J I ",
"P H U p.,XjXi a 9 5 5 0 x *.mXbX-X( O X $ * * = > , 8 k D >.C.MXJX.XK.y.X.b 0 5 3 2 3 3 - 1 c d.pXMXbXu.I y , * o = i 7XW T %.! ",
"T e.U.3XmX<Xv B s 0 a m n 4.mXm.: o @ * * = = - > 1 8 b Y #.C. XJXdXG.C.#.F m 0 9 5 < + * 1 W <XBXGXBXF.R i , - - g 3.lX;.U L I ",
"U.4XkXmXmX^.o.Q V b C F x 5Xn.+ + # * * - = > , < 1 8 b Y +.t.Y.JXdXG.t.$.Y C N s 0 ; 7 7.#X6XnXLXzXR. Xu.L c S  .l.<XnX~.i.p.g.",
"lXnX$Xf.lXiXO.E Y P n x l.0X# # ; ; ; = 3 3 3 5 8 0 N b D Y #.T.AXbXK.Z.>.X.F V V 0 q m.DXFXFXFXVXkXyXkX4X`.h.-X3X3X[.3XnXsXqXiX",
"k.i r t | mX1Xi.$.$.$.I.mX( * = = ; 3 5 5 9 6 0 8 0 k x n v T ,XZXZX XD.C.$.X.Y b M 8.NXcX..5 5 8 k b v <XNXzX!.i.%.w.w.<XmXmXgX",
"r 1 , , 1 N.BXbXeXrXeXFX9X; 2 2 5 9 9 0 0 0 0 y 8 t N k k n ! 8X'. XBX{.G.C.t.$.F 0.hXPXf < 8 8 u x v D kX!.%.R R L L L / nXh.J ",
"1 - = = , , G -XZXFXFXDX<.9 9 9 s 0 s y 0 k N k k x k k u n 3.p.X.>.pXJXaXXXF.T.[.cXDX] k u y u x b z l.U.$.o.I P v b v ~ !.L u ",
", * ; : 4 9 x #.L.ZXKXgXF N 0 0 0 0 N m N b m b b b x t t W 4.B m &.H.DXUXUXUXLXJXIXl.T Y n c P Y U v ;X-.+.X.I Y D b k x.i.H y ",
"> ; - 3 9 a F $.D.fXJX0.F m N m m b b V V F b n n n n t i ~ J r 0 V #.cXvXyXhXnXFXIX-.+.X.+.+.#.#.o.$.<Xo.o.T Q F F b 8 ,Xw.H r ",
"6 5 5 5 a B F $.A. XDXG V m m b V V V F F D D Y Y Y n t n 4.! y 0 N 4.q.Z F Y +.,.xXz.@.>.$.r.w.o.p.1X5Xn ! Y Q D C m ) ].w.I u ",
"y a 0 d m x c E Z.Y.ZXs b b V V D F F D Q Q T T X.D x l Q l.p.U n D 6.4 a V D X.o.! <X%.y.w.e.p.,XiXBX0Xr c ! Y F S < *XF.u.R p ",
"b k r 1 s S 4.g.T.'.lX< V D D D Q Y &.&.X.X.X.I n l D v l.^.3Xs.y.q.= 5 d F ! #.P L ,X2XU.,XtXyXN.} :XVXr - , B m g c.lX[.u.w.I ",
"4.1.2.q.x.x.^.4XqXpXlX1 D D &.X.X.X.X.+.#.&.b k n D o.j.).qXzXmXgX4 > < B Y X.J H R yXIXFX6X6.r y u ^ SX..= *   o *X1.I h.{.s.e.",
"yXyXgXyXyXjXbXmXmXmXCXV b X.X.X.:.#.#.T x t x v L $.T. XtXbXmXmX7., < 8 x T J z L ~.nXSX1.r u x z v <.GXLXV.j e m.^ J / w.zXzXzX",
"f 6 7 , 6 r i A k.SXKXx.n #.#.#.+.P k t t t l I p._.wXfXFXkX`.jX8.8 r u c Y c :.8X| q.7Xt i c n H I / GXKXxXQ.Q.lXi H R g.*X..h ",
"X * = - - , 1 r t l.FXlXo.Y ! J x x l l z n :.R.).eXFXJXwXZ.@.%Xk.y t i l v / jX~.g 6.jXv J K L E R E gX~.L P P f.yXf./.) X X X ",
"O * = = - , < 1 u H kXGXP.X.P L Y K Y F ;.l.W.2XbXFXIXFXG.r.X.x.+Xl z J / z.8X0X5X,X).mX~ I R o.o.R R zXW c x x 2.BX*X: . . O . ",
"O @ = = - , , r y c l.GXmXW.i.p.p.j.P.R.R.-XzXoX) <.+XVX_.#.n q.5X;.z.2XV.` : X o e B.SXHX%XE R R %.U.kXr y y u oX..o . . . . O ",
"X @ * * - , < 1 y i l.BXaXfXlXqX_._.-XqXuXn.4 + 3 0 N <.lX~ b N.mXkXM.7 * @ @ @ @ # * 7 M.VX7Xp.!.iXmXnXq * 8 f ' . . . . . . . ",
"@ * * = - , < r y y 5XF.u.D.BXJXAXbXnX7.: . + + ; 3 9 0 8.gXN.lXN.6 > > - - - - - - - - > a V.mX&Xc.h j B.h & v.. . . . . o O . ",
"$ * = - - < , 1 r | a.%.@.y.qXDXMXN.s 5 2 2 2 2 2 2 > < 1 #XmX#X1 1 1 1 1 < , , , , < 1 r 1 < >X    . o * _ *Xb.+ + . . . O . $ ",
": - 3 4 < < 1 r r ;.K v Y U ~.yXQ b N 0 9 9 5 < < < < < 6 y kX$Xt y y u y y y r y u r r r r r B.& X O * > < B [ @ + O . O + % % "
};
