/* XPM */
static char *North64[] = {
/* columns rows colors chars-per-pixel */
"64 64 256 2",
"   c #1B398E",
".  c #1C358B",
"X  c #173D92",
"o  c #1B3D93",
"O  c #16459B",
"+  c #164A9E",
"@  c #1A4296",
"#  c #1A459A",
"$  c #1A499D",
"%  c #19529E",
"&  c #17549F",
"*  c #0F5BAD",
"=  c #0F56AB",
"-  c #0E5EB2",
";  c #154DA2",
":  c #1A4CA2",
">  c #1652A5",
",  c #1455A9",
"<  c #1559A6",
"1  c #145BAD",
"2  c #1B52A5",
"3  c #1B55A9",
"4  c #1B5BA4",
"5  c #1A5BAD",
"6  c #145DB1",
"7  c #1A5EB1",
"8  c #0E63B6",
"9  c #0D66B9",
"0  c #0D6BBC",
"q  c #0E73BD",
"w  c #0E79BE",
"e  c #1562AC",
"r  c #1A63AC",
"t  c #1B69AE",
"y  c #126BAF",
"u  c #1362B4",
"i  c #1366B9",
"p  c #156AB4",
"a  c #146BBC",
"s  c #1962B4",
"d  c #1B65BA",
"f  c #1A6BB4",
"g  c #196BBC",
"h  c #1472B4",
"j  c #1473BC",
"k  c #147ABC",
"l  c #1A72B5",
"z  c #1973BC",
"x  c #1B7BBC",
"c  c #2A449F",
"v  c #2A4BA4",
"b  c #244BA2",
"n  c #2053A4",
"m  c #2A53A9",
"M  c #2858AC",
"N  c #245BB4",
"B  c #235EB9",
"V  c #2B5CB3",
"C  c #2362BB",
"Z  c #246DB9",
"A  c #2965BC",
"S  c #296DB7",
"D  c #2A6ABD",
"F  c #2564B4",
"G  c #2971BC",
"H  c #2A79BF",
"J  c #2070B4",
"K  c #306ABD",
"L  c #0B6EC1",
"P  c #0762C0",
"I  c #0771C6",
"U  c #0776C9",
"Y  c #077BCC",
"T  c #0C74C4",
"R  c #0A76C9",
"E  c #0C7AC5",
"W  c #0B7CCB",
"Q  c #077FD0",
"!  c #087FD1",
"~  c #126FC0",
"^  c #1C65C1",
"/  c #1A6AC6",
"(  c #1474C2",
")  c #137AC5",
"_  c #137CCA",
"`  c #1973C1",
"'  c #1A7CC2",
"]  c #187BCB",
"[  c #2B6CC1",
"{  c #2B73C4",
"}  c #2778C2",
"|  c #0F80BC",
" . c #1583BE",
".. c #1A81BD",
"X. c #0683CF",
"o. c #0D83C5",
"O. c #0C83CC",
"+. c #0E8CC5",
"@. c #0C8BCD",
"#. c #0683D2",
"$. c #0586D8",
"%. c #068BD4",
"&. c #058BDA",
"*. c #0C84D1",
"=. c #0B8CD3",
"-. c #098ADB",
";. c #0D93CB",
":. c #0C9BCE",
">. c #0D93C5",
",. c #0797D7",
"<. c #0594DB",
"1. c #0799D6",
"2. c #069CDC",
"3. c #0B93D3",
"4. c #0A94DB",
"5. c #0C9CD4",
"6. c #0B9CDA",
"7. c #1383C4",
"8. c #1283CC",
"9. c #158AC5",
"0. c #128BCC",
"q. c #1983C3",
"w. c #1A8AC4",
"e. c #188CCA",
"r. c #1185D1",
"t. c #118AD2",
"y. c #118FDD",
"u. c #1393CC",
"i. c #159CCE",
"p. c #1B90C6",
"a. c #1A92CA",
"s. c #1897CA",
"d. c #1393D3",
"f. c #129AD3",
"g. c #1597D9",
"h. c #069DE1",
"j. c #0899E3",
"k. c #0A96E3",
"l. c #119DE6",
"z. c #06A3DE",
"x. c #07AADD",
"c. c #0CA3D5",
"v. c #0BA4DA",
"b. c #0DAAD6",
"n. c #0BACDD",
"m. c #0BB3DD",
"M. c #0EBADF",
"N. c #14A2D3",
"B. c #11A6DA",
"V. c #13ADDB",
"C. c #1CACDA",
"Z. c #16A7D4",
"A. c #12B3DD",
"S. c #18BADC",
"D. c #05A5E3",
"F. c #06ACE3",
"G. c #05ADE9",
"H. c #0BA4E3",
"J. c #0AADE1",
"K. c #08A5E9",
"L. c #06B4E5",
"P. c #05B4E9",
"I. c #06BBE5",
"U. c #05BCEB",
"Y. c #0BB3E2",
"T. c #0CB4E8",
"R. c #0BBCE4",
"E. c #08BFE8",
"W. c #0CBAF1",
"Q. c #0ABBF3",
"!. c #13A6EB",
"~. c #12B5E2",
"^. c #12BBE3",
"/. c #16BAE8",
"(. c #12BBF4",
"). c #19BCF6",
"_. c #13B6F4",
"`. c #2B83C5",
"'. c #2B8CCA",
"]. c #2B97CF",
"[. c #259CD1",
"{. c #26A7D7",
"}. c #20B2D7",
"|. c #21B1EE",
" X c #05C4EC",
".X c #05CBEE",
"XX c #0BC2E6",
"oX c #0BC5EB",
"OX c #0BCCEC",
"+X c #06C6F2",
"@X c #05CCF1",
"#X c #0BC4F4",
"$X c #0CCCF2",
"%X c #0BCFF9",
"&X c #06CBF8",
"*X c #07D2EE",
"=X c #0BD2EE",
"-X c #04D4F3",
";X c #07D3FA",
":X c #04DBF6",
">X c #04DDF8",
",X c #0BD4F3",
"<X c #0BDBF4",
"1X c #0BDDFA",
"2X c #0ED4FA",
"3X c #11C3E5",
"4X c #15CDEC",
"5X c #19C7E8",
"6X c #12CBF3",
"7X c #19CCF6",
"8X c #16C9F7",
"9X c #16D1ED",
"0X c #12D3F2",
"qX c #14DDF4",
"wX c #14DCFC",
"eX c #18D7FB",
"rX c #1ADBF5",
"tX c #16D5FB",
"yX c #03E0F7",
"uX c #03E4FB",
"iX c #04EAFC",
"pX c #0AE0F5",
"aX c #0CE4FA",
"sX c #0BEAFB",
"dX c #0AF4FC",
"fX c #03F1FD",
"gX c #14E2F6",
"hX c #12E4FA",
"jX c #14EBFB",
"kX c #1BE3F6",
"lX c #1DE6F8",
"zX c #1BECFB",
"xX c #15F3FC",
"cX c #1CF3FC",
"vX c #1BF8FC",
"bX c #20D5EE",
"nX c #23DEF3",
"mX c #21D0FB",
"MX c #23E6F9",
"NX c #24E8F7",
"BX c #22EDFB",
"VX c #2BE8F7",
"CX c #23F3FC",
"ZX c #2BF3FD",
"AX c #28F9FD",
"SX c #35EEFA",
"DX c #33F3FC",
"FX c #33F8FD",
"GX c #3CF5FD",
"HX c #3AF9FD",
"JX c #42F6FD",
"KX c #43F9FD",
"LX c #4AF9FD",
"PX c #4CF6FD",
"IX c #54FAFD",
"UX c #59FAFD",
/* pixels */
": 2 2 3 5 3 1 1 9 L a i i u :.5.) x g s s 6 7 7 7 7 6 6 e 8 E .X9 i a a a g z ~ / ( z ~ i i 9 ;.; 2 2 2 , 1 E y O @ # b : b b 2 ",
"n 5 5 5 5 1 1 > a i i s s 2 >.) _ ( z g g g g i i i s i 9 9 0 L.0 ) ) ] ) ( ( ( ( _ _ _ _ L E ;.5 6 5 ; , @.-X< $ : n n : n n 2 ",
"N 5 5 7 s 6 , > q i d < # r A.O.W j a j ~ ~ ~ ( ( ( a 9 0 I T .X1.O.0.0.0._ _ L _ *.r.*.O.L J.@.j u ; - v.>XiX% 2 3 3 3 3 3 3 N ",
"7 s s s u 1 > = o.> O $ ..XX:X4.X.0 8 8 - - 6 6 - 9 0 E E %.L.aXzX,XR.n.=.W L L T W =.#.R U.iX;.( * 0 J.K.j.&Xe < 5 5 5 5 5 7 r ",
"s d g g 6 ; ; j :.< l N.4XZXjX.XF.,.%.O.E E E E E @.L.:X>XuXuXBXGXDXCX<XY.,.T Y O.O.Y ,.&X&X1X2.I O.L._.R P -.;.3 s s s s s s s ",
"g g g 6 ; ; u c..Xm.3XhXHXCX.X X X X XL.x.v.x.x.L.:X*Xo.+ + e  .b.<XvXAXNXOXY.Y.F.L. X+X&.k.(.>XL..XqX|.y.*.y.$X; s s d d g g g ",
"g s ; ; ; j c.oX+X&XjXUXzXU.h.$.Y Y %.F..X:X:X:XuXx.1 , ; O O $ & J ..s.C.nX:X>X>XuX%Xl.!._.2XuX>X-X-X8X7X7XeXsXw s g g g ~ / z ",
"# O O e 8.c.OXK.4.(.CXzXU.2.%.U I I I 0 0 U 2.:X X8 1 , > ; : $ % % 4 % $ X e :.>XiXtXtX&XT.y.] / / / ^ ^ ^ ^ 8.v., d d g 7 5 : ",
"O 1 k u.n.:X%XT.T.@XjXoX<.Q U L P 9 9 9 9 9 9 =.-X9 6 6 = > ; : c $ # # o o o o O ;.-Xy./ / / / / ^ ^ ^ ^ 7 B B ' j 1 < 2 ; ; + ",
"k 9.c.oXaXm.1 i E =.U.2.Y L 0 9 9 9 i 8 - i 9 9 .XT 9 6 6 , > > % + $ $ $ # : # $ O 0.^ ^ ^ / ^ ^ ^ ^ ^ B B B V N c.1 1 e e e p ",
"Z.R./.y.#X1 6 9 E Y P.Y L 0 9 9 6 6 6 6 6 6 i 6 @.1.9 i 6 6 , , > 2 ; + ; : $ : : ; j ^ ^ ^ [ ^ ^ B ^ C B B B B C a.f.k k 9.u.i.",
"<XwX_.W.w 6 i ~ E U P.L P 9 - 6 1 6 1 6 6 7 6 s u .X~ ~ i i i s s s 5 < > 2 ; > ; > d d 7 ^ ^ d [ ^ ^ B B B B A D Z ,XV.A.A.^.XX",
" .t 4 > ; i ( R W Y U.0 9 8 6 6 6 6 7 7 6 s s s p *X@.q ( ( ~ ~ g i d i s 6 7 , , , i B C C C C 7 ^ B C B B A A G H S.pX0X<XuXpX",
"t r 2 2 = a ) O.W 6.I.a u u 6 6 7 7 7 7 7 s s f 9.=XoXO.q ) ( ( ( ( a / g g i i i 6 a N C C C C [ B B B B B A A G `.[.dXcXFXjX .",
"l f 5 < , ( 8.@.3.OXm.( a s 6 7 7 7 s s s s r t C.zXCXI.O.q _ 8._ _ _ ) ) ) ~ a ~ u ( N B C C C B [ [ B B B A D H `.].kXHXxXA...",
"x f s 6 6 a 8.3.Y.hXY.e.x d s s 7 s s s 7 $ & s.gXLXKXVXJ.O.L W O.t.*.r._ _ _ _ 0 9 0.N B C A C B B B [ A A D G } `.].5XHX=XZ.'.",
"x z i u i a @.Y.<XHX=Xi.w.z f s s s s 2 @ 4 p.NXJXkXI.9XVXJ.@.T W 3.4.6.=.8.T T E O.Y.M B A A A [ A [ B [ B [ [ { `.'.{.aXZ.i.'.",
"' z a a ~ W 5.OXcXUXCXV.7.t 2 + $ #   $ l i.<XkXx.=.O._ v.uX Xx.v.6.3.=.O.O.3.5.n.6X1XA M A A A [ [ [ [ [ [ [ A { { `.`.=X .u.9.",
"] ) j L ( @.oXDXLXHXFXSX^.9.r & 4 r l w.^.uXuXO.) j ( z k >XdXsX:X-XE.Y.L.Y.I.$X7X8X7XZ.D C D D [ [ [ [ [ [ [ [ D { } G =X( d.9.",
"] ) E Y Y .XzXqX<X1X,X,XsXjXaXoXY.A.XXoX_.1XyXL a a z h A.sXZXFXvXzXjXaX:XyXwX).T.T./.1X'.S D [ [ [ [ [ [ [ [ [ [ K K S XX( 0.8.",
"8.O.Y X.F.aX:.0.V.~.~.J.6XGXjXuXjXSXzXQ.l.tX>Xi a a l i.pXAXFXcXjXqX9X<XuXiXaX2X#X#X%XsX9X`.F A [ { { { { { [ [ [ K K V V.@.*.0.",
"E U X.D.uXv.s z 9.f.f.B.SXjXP.D.<.D.BXhX).eXuXi r l p.^.xXFXhXL.=.*.W L E z.+XiXjXzXvXHXCX{.G m [ { { { { { { [ [ D A m N.v.W O.",
"%.h.P.>XiXe > r f x 0.MXDXP.&.Y R I 3.sXhXBXsXe.x  .A.hXCXoX4.O.T L 0 9 0 a ( W v.Y.oX<XCXgX'.M m A [ [ { { { [ [ [ V c u..XY O.",
"@X:XuXuXiX*X .r t 9.gXZX.X4.#.E L ~ j R.dXvXdXXXZ.3XiXjXv.O.T 0 9 9 9 i 8 9 9 a ) 0.f.v.R.sX3X'.A m v v v v m m m m v c e.uXU. X",
"e   @ y  .*XiXpX3XNXAXyXD.,.O.) g s j f.FXAXvXdXiXiX-X@.L L 9 9 i 6 6 6 6 6 8 u i ) W O.O.E.uX5X{.'.S M m v v m m m m m Z.uX,X>.",
"    . . @ @ r i.gXAXxXXXJ.d.8.( i 6 s 9.FXvX,XeXfX.XW ~ 0 9 6 6 6 6 6 6 6 6 6 6 u u a z j @.uXuXqX^.[.`.H G S Z H H } i.aXm.#   ",
"        @ $ 4 l  .=XxXyXn.3.7.z s 5 2 s.ZXzXeXaXuXO.T i 6 6 6 6 6 1 , , 6 6 6 6 u u i i W 3.jXDXiX>XiX>X4X~.C.{.{.{.5XZXb.% # @ ",
"@ @   @ c % r J p.i.OXvXNXf.7.a s r # 5XaX(.aXiXL.E 0 i 6 6 6 1 6 3 7 7 7 7 7 6 u s i ( 0.^.JXaXh.O.Y *.6.L.@XhXBXBXDX3Xt 5 % $ ",
"n $ # c @ 2 r t .. .s.M.zXzX9.a t r 7.sX#Xh.1XiX3.q i u 6 6 7 7 5 5 7 5 7 7 7 7 s s a _ :.ZXaXH.U 0 u 8 i E =.K.<XJXCXe.z s 3 2 ",
"3 3 2 : + 2 5 t x ..q...Z.iXXX5 t }.zXiXW._.aXiXW ~ 9 e 6 6 7 5 5 5 5 5 7 7 7 7 s s z +.gXCXF.O.0 6 , 1 6 i O.6.P.FXbX9.x f 7 5 ",
"r 7 5 5 < 3 5 r J l h k j 5.uX9XZXJXCXqX1XtXsX>X@.T i s 6 6 7 7 5 5 5 7 < , 2 : 2 e 9.<XFX+X,.W i 7 5 5 5 d ) =.D.CXC.q.' g s f ",
"s d s s s 5 5 r t t h f p j n.DXaX#XF.H.h.F.:XsX3.7.( i 7 7 7 5 7 7 5 : o @ 2 r k f.<XFXDXG.*.( d 5 N n 5 d z *.j.zX0.] z g g s ",
"g / g i i s 7 < s s s j z 8.B.:Xj.=.O.W O.,. XJX=X0.7.z s s 7 7 7 5 @ . % r l  .Z.1XzXCXGXh.Y 7.x Z M s s d z r.<.yXj _ ) ( ( z ",
"( ( z / g g i > > 1 i j ;.n.OX-X=.) i u i k 6.BXLX9Xu.a s 2 + $ #   @ t x  .i.OXuX#XH.$XPXG.*.8.e.] H Z g g ( R H.@X8 9 ) _ _ ( ",
"_ ) ) ) ) ( ( 1 * 0 8.c.R.=XCXOX=.z 6 3 s j 9.c.qXLXSXXX>.j h l x e.f.V.XX:XiXiX&XK.K.;XZX1XL.c.u.e.k f < 1 q 2.+X.X@.0 - 8 ( _ ",
"u a L ( ( ( 8 8 T ;.A.9XNXZXIXOX3.z 5 : : e k 3.J.ZXDXZXFXZXuXuXuXuX>X#X#X6XuXuXiXuX:X>XiXZXjX,X4XA.f.u.u.5.L.@X>XuXI.z.@.0 8 * ",
"q 0 8 0 9 q E 5.*XiXiXCXlXDXJX.Xu.z 5 2 > < s k 1.zX.Xz.0._ *.L.uX8X!.y.!.1XuX>XJ.O.R *.L.jXUXcXdXpX<XOX=X<XuXuX-X@X:X>X Xx.3.o.",
"E.Y.n.v.v.L..XiXiX:XU.D.G.,XJXE.0.( s 3 O X ; 9 1.uXF.d.x t a 3.+XwXmXtXaX:Xz.a 8 e g 8.f.E.xXIXAXdXcXzXzX,Xz.! Y Q &.K.>XiXuX*X",
"p , k c.*XuXuX:X,.L R *.h.U.jXP.*.j 1 # X O > 0 L.uXh.) f f z 3.:XzXiXuXJ.j 6 , , , r z d.~.<XxXLXLXAX<X2.) L ~ 0 L U $.U.iX.X>.",
"> 1 * - 9 +X-X0 6 6 e a O.D.iXG.#.9 > ; ; > 8 1.:XiX@Xf.k l  .v.xXCX-X6.W i 1 > ; ; 2 s 7.f.^..XsXGXBX6.8.g s i s 6 0 %.:Xk > > ",
"a j 0 q 0 -Xz.1 : : > 6 ~ =.iXG.$.R 0 8 8 o.c.c.+.o.>.v.m.3XOX>XCX,XY.4.7.i < : # + + 5 f 0.f.T. XCXhX4.) d s d 7 6 6 x.;.6 i i ",
"_ W U I %.uXT , : : ; 2 u O.uXU.k.<.%.8 > @ @ O $ : < f k u.=XcXFX>XU.f.8.f 3 : $ c $ 2 s k 0.5.@XsX1X4.) d s 7 5 : = I.q q ) ) ",
"T 0 U ,. X:Xu s 3 n 3 7 i W iX:XU.j @ @ @ O O O $ 2 r l ..f.A.cXHXaXU.B.e.z r 4 n n n 2 O , a v.:XuXuX6._ s 2 @ X O 8 *XE W #._ ",
"E %.D.+X>X X( i s s s i ~ =.iXb.O X @ @ O + O + ; 2 s h 9.d.A.<XFXsXE.B.0.' f N 3 3 2 X O , j oXjXZXuXL.O.8 > O ; u 3.:X%.R T I ",
"F. X:XuXuXP.O._ ( ~ ~ / 9 .Xc.o o # # $ $ $ ; ; > 3 s a 7.u.V.XXZXaXT.H.d.q.g s 7 s $ < u.Y.$XaXDXaXW.8X<.Y 0 0 E z. XiXL.%.<.2.",
":XuXI.2.:X-XQ Y ) ) z i 2.OX@ # # $ $ : : : 2 2 2 5 s p k 7.u.R.zXsXP.H.d.0.] z ~ 3 1 b.BXCXzXBXlXqX2X1X-XD.F.L..X+XU.@X>X-X-X-X",
"5.8 - 1 @.uX X&.*.;.3.x.aXp # # : : : 2 3 3 5 5 1 7 s i j j 9.oXfXiX.XF.6.0.r._ ~ s ;.yXgXo.4 3 e p j q E.iX>XP.%.#.Q Q .XuXuX-X",
"e , > ; > c.uXuX-X<X>XBX9X: : ; 3 3 3 5 7 7 7 7 s s s i i q O.@XT.@XiX@XT.H.g.-.) c.qXVXp > , 6 s i 0 q :XL.Q Y Y E U T Y yXz.0 ",
"> ; $ $ : ; j XXiXvXvXAXu.N 2 5 5 7 7 7 s s s i i g i 6 u 0 3.5.9.f.<XFXaX.XL.Y.oXkXSX7.i 6 6 i i a 9 v.K.=.O.W L ~ 0 0 O.P.I e ",
"> O # $ 2 5 g d.oXvXJXgXx t 5 s s s d d i g g a a a a 8 - j ;.g g w.^.ZXUXIXIXDXDXLXn.] ) ~ ~ ( W W L E.*.O._ _ _ ( a u c.%.0 6 ",
": : c 2 3 s z d.Y.gXHXZ.x f s s d g g g ~ z ( / ( ( a - 9 Y q 1 N z d.VXNX<XgXhXBXJXd.@.*.r.O.O.*.W Q  XO.r._ _ ( ] g e U.#.I 6 ",
"3 3 3 < 7 g _ t.D..XCX7.z d a g ~ z ` ` ` ( ( _ ( R L - 0 3.W u 5 s @.Z.x x ] t.3.kXv.=.-.=.4.-.X.<. X.X0 r._ _ ( / d w U.$.I e ",
"6 7 s s i g 0 O.j.G.sXe g z z z ` ) _ _ _ _ _ _ _ ) 9 8 E v.<.R T T @.2 7 g ( r.W Y E.#.<.%.%.,.U.-XaX=X, ( 8.) ] z 2 I.h.&.! L ",
"a s 1 , e q X.z.D.G.uX, / ( ( _ _ _ _ _ r.8.*._ ~ i a T v.R. Xj.%.:.$ 2 d ( _ r.E T  XoXF.U.@X-Xv.o.E.kX1 O > a g < u.:XU.&.$.T ",
"@.@.;.5.5.x.L. X*X:X>X, ~ _ _ _ _ r.r.r.r._ 0 i 0 T O.b.I.=XyXuX-X2 + , ~ ) O.0 L Y $XJXjX@X@.6 8 u E zX@.O X   X I.3.W z. Xk.%.",
"<X-X:X-X:X:X>XiXiXuXzXa a _ r.r.r.r.t.W 0 - u 0 W 3.Y.=X<XuXiXiX:.; , 1 g _ L 0 U F.aXBX@.6 e i 9 9 @.DXSX}.p e b.) R W *.:X>X>X",
"e < > > , * 8 q 1.zXGXN.j 0.r.t.*.) - - - 9 i E 5.OXpXsXCXrXL.<X;., * u 0 T 9 #.@X<.K.$X8 9 0 L q R #.ZXGXrXF.L.>X8 L W H.I.o.h ",
"@ O O $ ; > , - 8 v.AXqX@.8.W ( a 9 9 8 9 0 @.n.OXpXCXFX<Xx.%.I.1.e 8 8 8 0 X.:X_.R 4.-X0 0 T E Y W Y ,XJ.R L R 1.-X1.J.h X   @ ",
"X @ O $ O ; , , 6 T 1XAXA.W ) E T T E E %.1.m..XuXCXLXCXE.f.8.v.L.9 0 0 o.z.@X.X8X).).uXO.T W Q #.Y Y :XT a a 9 ;.iXm.+ o o X @ ",
"o @ O $ ; ; > 6 6 9 n.ZXjXY.5.5.v.c.v.x.J. X:Xm. .p.S.BXE.u.' c..X%.z..Xm.w $   X y v.lXMXL.Y U R ! D.-X6 u e u L.+.X X o   @   ",
"o @ # $ ; ; > , 6 u c.jX:XuXaXOXXXE.E..X<X:.2 @ % r J p.aX9.z B.uX>X5.< @ O @ @ X X # 3 5.jX4X2.P..XuXuX= + < e k o o o o o o o ",
"@ # # $ : ; > , 1 6 +Xh.h.D.zXGXxXiXpX:.+ o @ @ # 4 4 r ;.-Xn.:Xv., : ; O O $ O : : ; ; + , m.uXI.+.h y b.h . :.X o o o o o o o ",
"@ # $ $ ; : , , 6 o.,.#.=.4.-XCXiXb.f 2 % : : $ $ $ 2 2 3 I.uXI., , , , 3 , > > > 2 > > < 1 >  X. .   X $ q M.:.o o o o @   o @ ",
"c : : 2 2 3 , 1 * %.L ( E E R.<X9.z f s 3 2 2 3 3 3 2 4 > 8 :XU.6 e 6 6 s 6 s s u s 6 6 6 6 1 c.  o @ # + > 9  .@ @ o o @ @ @ c "
};
