/* XPM */
static char *South64[] = {
/* columns rows colors chars-per-pixel */
"64 64 256 2",
"   c #35181C",
".  c #3C1A1C",
"X  c #34171B",
"o  c #441C1C",
"O  c #4D1419",
"+  c #4C1E1D",
"@  c #53161B",
"#  c #521F1D",
"$  c #58171B",
"%  c #5B1A1B",
"&  c #5E1D16",
"*  c #5A1109",
"=  c #4D201C",
"-  c #54211E",
";  c #5B221E",
":  c #5D2220",
">  c #532020",
",  c #641C1B",
"<  c #6B1E1C",
"1  c #751706",
"2  c #611F20",
"3  c #63251E",
"4  c #66281E",
"5  c #6B251E",
"6  c #6C291E",
"7  c #6A2816",
"8  c #73241D",
"9  c #732B1E",
"0  c #7B251D",
"q  c #7C2B16",
"w  c #7C2C1D",
"e  c #742D14",
"r  c #75321D",
"t  c #7C331E",
"y  c #7B371B",
"u  c #642420",
"i  c #652820",
"p  c #6B2520",
"a  c #6D2820",
"s  c #732621",
"d  c #742A21",
"f  c #7C2621",
"g  c #7C2B21",
"h  c #7D3021",
"j  c #7C3820",
"k  c #8A1C08",
"l  c #911E05",
"z  c #8D2008",
"x  c #832C1D",
"c  c #8B2D1C",
"v  c #822A16",
"b  c #853214",
"n  c #82331E",
"m  c #833C1E",
"M  c #8B341E",
"N  c #8A3D1D",
"B  c #8C3615",
"V  c #9A2606",
"C  c #942E1D",
"Z  c #9C2D1E",
"A  c #9D3B0F",
"S  c #943514",
"D  c #93331C",
"F  c #933D1C",
"G  c #9B3414",
"H  c #9C331B",
"J  c #9C3A13",
"K  c #9C3B1C",
"L  c #933815",
"P  c #832621",
"I  c #832C22",
"U  c #8B2C22",
"Y  c #892723",
"T  c #843221",
"R  c #8C3222",
"E  c #8C3B20",
"W  c #932D22",
"Q  c #9A2E22",
"!  c #943322",
"~  c #943A21",
"^  c #9B3423",
"/  c #9C3B22",
"(  c #A42506",
")  c #A92907",
"_  c #A02E1F",
"`  c #A33B0E",
"'  c #AC3F0E",
"]  c #A13517",
"[  c #A4341D",
"{  c #A33B14",
"}  c #A33B1C",
"|  c #AB351C",
" . c #AB3C13",
".. c #AC3D1C",
"X. c #B7390A",
"o. c #B3371D",
"O. c #B43D14",
"+. c #B33B1C",
"@. c #BC3D15",
"#. c #BA3C1C",
"$. c #BA371E",
"%. c #B02C06",
"&. c #A22F22",
"*. c #A33323",
"=. c #A33B22",
"-. c #AB3423",
";. c #AB3B22",
":. c #B23C22",
">. c #B43621",
",. c #8C421E",
"<. c #98471B",
"1. c #9B541D",
"2. c #8D4220",
"3. c #9B4322",
"4. c #964721",
"5. c #9D5221",
"6. c #AD410D",
"7. c #A64113",
"8. c #AA4519",
"9. c #A85B1D",
"0. c #B5410D",
"q. c #BC430C",
"w. c #BA490D",
"e. c #B34313",
"r. c #BB4213",
"t. c #BD4B16",
"y. c #B6461B",
"u. c #BA560D",
"i. c #B85618",
"p. c #A54322",
"a. c #A44821",
"s. c #AB4322",
"d. c #AB4A22",
"f. c #A55121",
"g. c #B34423",
"h. c #B44B22",
"j. c #BB4A22",
"k. c #BB4221",
"l. c #B55521",
"z. c #AD641F",
"x. c #BD660F",
"c. c #BC661B",
"v. c #BB6120",
"b. c #C53306",
"n. c #CB3A06",
"m. c #C93808",
"M. c #C63E19",
"N. c #D23D06",
"B. c #D23605",
"V. c #CA3924",
"C. c #C2440B",
"Z. c #C54A0C",
"A. c #CA460D",
"S. c #CB4B0B",
"D. c #CC4005",
"F. c #C34314",
"G. c #C44A13",
"H. c #C34C1B",
"J. c #CB4413",
"K. c #CB4619",
"L. c #CC4C13",
"P. c #C54A1B",
"I. c #CA530F",
"U. c #CF5613",
"Y. c #CA5A13",
"T. c #C75518",
"R. c #D34B0B",
"E. c #DB4C0C",
"W. c #D94807",
"Q. c #D14512",
"!. c #DB4912",
"~. c #D54A17",
"^. c #DD5107",
"/. c #DC530B",
"(. c #D6550B",
"). c #D45C12",
"_. c #DB5212",
"`. c #D75717",
"'. c #C74721",
"]. c #C75722",
"[. c #D15523",
"{. c #D64122",
"}. c #CC630E",
"|. c #C86519",
" X c #DB670B",
".X c #D46C14",
"XX c #DB6C13",
"oX c #D66517",
"OX c #DD790D",
"+X c #D57415",
"@X c #C87717",
"#X c #C86322",
"$X c #D96A22",
"%X c #E34E0C",
"&X c #EB4F0D",
"*X c #E74905",
"=X c #E14B10",
"-X c #E45107",
";X c #E3520B",
":X c #E35B0B",
">X c #ED5506",
",X c #EB530A",
"<X c #EC5C06",
"1X c #E95B09",
"2X c #E35513",
"3X c #F14D03",
"4X c #F35605",
"5X c #F25509",
"6X c #F55904",
"7X c #FB5B03",
"8X c #F85404",
"9X c #ED6306",
"0X c #EC6309",
"qX c #EB6A0A",
"wX c #E46709",
"eX c #E36615",
"rX c #EA730A",
"tX c #E97809",
"yX c #E27B16",
"uX c #F36305",
"iX c #F46A04",
"pX c #FC6303",
"aX c #FB6B03",
"sX c #F16709",
"dX c #F47406",
"fX c #F47C05",
"gX c #FB7403",
"hX c #FB7B03",
"jX c #F27A0A",
"kX c #E47922",
"lX c #DB850E",
"zX c #D68111",
"xX c #ED840B",
"cX c #EA8608",
"vX c #E78512",
"bX c #EB960C",
"nX c #EC9111",
"mX c #F48305",
"MX c #F58B05",
"NX c #FB8503",
"BX c #FB8B03",
"VX c #F3890A",
"CX c #F49405",
"ZX c #FB9403",
"AX c #FC9C02",
"SX c #F39C08",
"DX c #F39418",
"FX c #FBA303",
"GX c #FBAB03",
"HX c #F6A607",
"JX c #FCB302",
"KX c #FDBB02",
"LX c #F7AA10",
"PX c #FDC402",
"IX c #FDCA02",
"UX c #FDD702",
/* pixels */
"; ; ; 3 : : : : 6 d d p d a { { T h g d p 5 5 5 i 5 i i u u c W.p d d d g g g g g I g g p s 3 ` - - ; : : : x 7 o o + = - ; ; > ",
"3 3 3 4 5 3 5 - 8 d d d 6 - L T R T g d d g d d d d p p p p 5 @.d g T U T I T I R U R U U g x J 5 5 : + ; x E.7 + ; ; ; ; ; 3 : ",
"4 4 5 5 a 3 : # 9 d d 3 o 4 r.R T g g g g g g P g g d s s f 0 Q.K M ! ~ ~ R I g R ! ^ ! R g r.J g d - ; O.6X7X@ ; : u 3 i 3 4 i ",
"d d d d s 3 # # v - o + t H.wX3.U p p , u : : u u p p f P U | uXhX).].l.! I f s f U ^ W f J.7XG g % 8 O.( k N.7 3 3 3 p a 5 a a ",
"d g g g p + # 8 ] # 6 K  XFXMX`.:.Q U I P f f f f U O.5X4X6X7XhXZXAXGXyXj.! f f c P Y H W.W.3X .s I @.B.1 * l A 3 a a d 6 d d d ",
"g g g 3 + + , _ Q.e.L.jXJXHX.XY.Q.Q.M.o.*.&.&.&.$.&X&Xb + + 7 B u.tXGXFXjXK.>.*.*.o.Q.n.k l B.>X$.J.8Xb.V k ( W.= d d d g g d h ",
"g 4 # + + 8 Z M.D.^.MXIXHX#Xd.! P P C O.E.&X%X,X7Xq.3 # # + + + ; e ,.<.u.qX5X&X5X8X*X( ) B.3X7X5X-XW.W.*X*X3X8Xq d g g I h T g ",
"o + + ; P _ A.%.V S.AXFX|.a.R f s s p s 5 x  .5XR.3 : ; - # + + = ; ; - = . 7 ' 4X7X3X3XW.X.v , O O O O O O , q 0.; 9 g d d : > ",
"+ % 8 c | ,X;Xm.I. XMX}.3.I s s p p p p p p p D ;Xp u u ; ; - = = + = + o o o o + A -Xv O O O O O O O @ @ @ @ $ q e ; ; - = = > ",
"g c Z J.4Xq.: a T N T.8.I s p p p p u u u p p u E.w p 3 u : ; - - - + + + + o o o + v O O O O O @ @ @ @ @ $ $ % ,  .; 3 4 3 3 5 ",
"^ @.n.( W.3 u p h I F.P s p p p p u i : u u p u G  .p p u 3 : : ; - - - = = = + # + 7 O @ @ @ @ @ $ $ $ % % % , 5 ] { I w M ! ! ",
",X8Xm.b.v u p d I f C.s s p u u 3 : i i u p p p 3 ^.s g p s d a a a : 3 : - : > # # , $ $ $ $ $ % % , % % , < < 8 0 :X8.g.k.y.P.",
"L 7 ; - + d g I I P J.p p u u u i i i 5 5 p a d 5 :XD w g g g g g d d d a p u : ; ; , % % % % , , , , , < < < 8 w x I.qX`.oXqXqX",
"r 4 ; - - g U ! U [ Z.d p u u p i 5 a 5 a a d 6 n /.U.T g I I I g I g g g d d d 5 3 < % , , , < , < < < < < 8 0 c D i.BXAXGXmX<.",
"t 9 3 ; : g ! ! ! U.t.I d a p p 5 5 a a 6 d 5 6 8.MXAXt.Y g R R R R R U I I g g 9 p q % < < < < < < < < < 8 0 x c =.y.bXPXFXc.2.",
"T r 4 i : d R / k.dXi.~ T d p p a a d d d = - D rXKXGXBXy.I s T ! ^ ^ ~ ! R R I f 5 G $ < < < 8 8 0 0 s 8 0 P U M =.y.+XJXzX9.3.",
"R h d p p d ! h.oXJXXXd.~ T 6 s 6 9 8 ; . @ D rXAXtXT. XfX+.U g R 3.d.d.=.R g g g U C., < 8 0 8 P f P P P P Y U ^ / s.l.mX9.d.3.",
"R h d s d I p.].HXUXGXl.E 6 ; + # # . + 3 G >XdXy.~ ~ T e.uXT.y.f.f.a.3.E U ! ^ 8./.6X0 8 f P P P Y Y Y Y Y U W ^ *.=.=.wX3.p.~ ",
"E I g d g ! T.CXPXUXPXCXY.L 3 # # % 8 v M.8X7Xc h h j y T qXBXVXvXkX#Xj.:.>.y.!.E.W.-Xr.x x Y c Y C W W W W W W ^ *.=.^ :Xh / ~ ",
"! I I I I _.gXrXyXkXkXeXiXgXuXR.q.O.@.N.b.8X4Xs d d j y z.ZXKXPXJXHXVXeX_.,X6XD.q.0.X.0X[ x Y W W W W W Q ^ Q ^ ^ ^ *.! /.g / ! ",
"! U Y I O.7X7./ h.].].j.oXBXgX7XaXNXgXb.( 3X6X5 r y y 9.nXPXPXGXCXtX XwX7X7X7X-XS.C.(.CXXX} I W Q &.&.&.*.^ *.^ ^ *.*.! R.D ! ! ",
"I P I | 4Xe.4 g F p.p.8.BXaXM.| H O.gX6Xb.>XpX6 4 y 1.c.HXJXCXc.3.E g s f  ./.pXgXfXAXPXFXt.D f W *.*.*.*.-.*.*.*.*.*.U J.e.I ! ",
"W Q o.5X7X7 - 4 9 n J tXBXF.W I g f { aXuXiXhXF ,.,.c.MXFX.Xa.E g s s p p s g n 8.t.|.vXZXiX[ Y P ^ &.*.-.-.-.-.-.-.&.Y F.E.I P ",
"%X,X7X7X7X:XB 3 6 N dXBX_.^ R I d s w I.NXFXAX}.8.I.dXfXy.N g p p p p p p p p d I ~ p.8.T.aX!.| ! U P f I P Y U W W Y Y @.6XJ.K.",
"7 o o 7 7.(.iXqX}.BXAXqXg./ R I d p g 8.GXIXGXNXhXgX1XD g a p p p u u 3 p p u p d g R R R U.aX`.j.>.Q W Y Y Y W W Q Q Q K.7X-XJ ",
"    X     = 7 7.tXFXAX|.h.3.! g d 3 6 ,.AXZX XwXgX^.x d p p u u u u u 3 : 3 u u 3 s d g P N dXNXqX~.$.-.-.&.*.-.-.:.:.K.uXZ.+ . ",
". . . . = = ; r <.zXGXvXl./ R h 6 4 3 <.BXhX<XiXuXR g p u u i i u : : : i p p p p p d d T 1.CXFXaX7X7X4X%X!.K.'.'.[.2XNXw.- + . ",
"o o . o = - 4 y <.9.zXAXcX8.T g 6 7 O  X9Xm.iXaXG.g d p u u i i : i 5 5 5 p p a p a d h 4.@XKXfX;.I x c | F.2XdXBXZXHXoX6 4 ; + ",
"; - + o = ; 4 r ,.1.1.|.NXfXB g 9 7 B aXm.V <XpXK 9 a : i p i i i 5 5 a p p a a d d g E 9.JXCX8.I p p 3 a g ! ;.rXGXSX<.j 6 4 : ",
"3 ; : - - ; 3 r r m N N e.pX(.3 r x.CXgXC.q.uXiXT g 5 i p 5 5 i a 5 a a a d d d 9 9 T 1.bXFXl.R a 3 : : : d R =.i.FXOXE T d 5 i ",
"6 5 5 3 3 3 3 4 9 r t g 9 7.uXwXmXGXAXtXqXuXhXjX2.h d 5 p p 5 p a a a a 4 3 : - - 3 ,.tXJXoX/ I d p i 3 i d T ^ :.NXi.E T g d a ",
"9 9 d a 4 6 3 4 4 9 d 9 9 9 e.NXaXU.h.s.p.l.jXMX9.E T d p a a a 6 d d + . o + ; 8 H rXGXAXy.! I d a i i 5 a I ! =.gXF R T g h d ",
"h g g g d 6 5 : 4 a 6 9 w R ^ 1X=.! R T m 1.@XKXlX1.,.t d 6 6 9 d a o   + , 7 v ] <XNXBXAX..I R T g d 6 a d I ! ^ uXg R R I I g ",
"T I I g g g d # % : 6 g ~ :.~.:X! h a 5 r ,.z.HXPXlX1.y 4 ; ; + = . o , 8 0 C J.7XW.X.W.FXy.! R / F T h g g g f | E.p s I R R T ",
"R R T U T I g % : p x ^ j.`.BXoX^ g i ; 4 t ,.z.bXKXFXY.K 0 5 6 0 b G O.A.*X8X7X*X) ) E.NXuXy.d.<./ N 9 3 % 0 ^ Q.!.Y p 2 p I R ",
"p d g g I I 8 3 f D @.oXxXHXPX.X3.g 3 ; ; 6 ,.5.c.JXGXAXAXNX7X7X7X7X*XN.N.*X7X7X7X7X4X<XpXBXjX$X$Xl.} D c Q >.V.4X8XF.Q I p u : ",
"s 5 5 p 8 s f H E.7XpXBXxXGXKX.X/ h 4 ; ; 3 4 m l.AX+Xf.3.n D F.7X*X) V X.3X7X4Xr.c P ! H.mXIXLXDX$X[.'.{.Q.&X6X;XE.>X5XQ.| C P ",
"J.$.| _ _ | Q.7X7X>XG.:.j.XXGXT.~ h 6 3 # o ; N l.fXl.3.m j g ! _.8X*X3X8X4X .8 3 3 d R p.].HXUXPXDXjXgXgX;Xr.U I Y U #.5X7X6X!.",
"7 ; 0  .>X8X7X>X] s g ! =.P.hXF.! I 3 + . + p ^ ].aXs.2.y r h / :XNXpXuXr.w 3 ; ; - 3 h ~ j.kXLXIXKXZXeX..f g d s f f W J.7X^.J ",
"; 3 u 3 5 E.E.8 3 u 3 d R y.pXy.I p ; # 3 6 R y.>XpX~./ t r T g.gXNX:X=.U 6 3 # # + ; d E p.].$XxXFXhX;.R g d d 5 p s D >Xb > > ",
"g g g s s %X .u - # - 3 d H 7XJ.^ U I x R { e.0.S B J e.t.H.T.rXZXrXh./ R d : = + = - 3 r ~ p.j.[.hXsX=.T d d g 6 3 u r.J 3 a d ",
"U U P s Y 7Xw 3 ; = - ; p M 7X~.:.:.=.w ; o o o + - 3 6 w <..XAXGXyX].s.E d ; - = = = ; 5 h ~ =.[.gX0X=.T g d 4 3 ; ; S.0 x I T ",
"g s f Q M.>X5 5 3 ; 3 4 s B 7X5XL.q o o o o + + = : 4 9 M a.c.HXIXnX].d.E I a u - ; : - + ; 9 ;.`.aXuX=.T a ; o . o 9 ;XI R ! U ",
"f U &.M.4XR.g d d 6 d d g H 6Xq.+ o o + + + + + = ; 4 h T 8.v.nXPXnX#Xd.3.T d a 4 3 3 o o - h '.sXBXaXy.I 5 > o # d =.5XD f f s ",
"-.M.&X7X7Xq.U R I I T g 5 E.0.o o + + + + + - - - : 6 w T F f..XGXyX].g./ R h d d a # 6 e.L._.0XBXiXC./.=.R w I ! ;.'.7X#.W W Q ",
"5X8XA.{ 4X&XU U I T I p  ./.o + + + + = = : ; ; : : 6 d T M a.T.ZXgXj.g.=.~ T P g 3 t q.gXgXgXfXgX0X<XuX2Xk.y.J.!.R.J.E.6X!.~.!.",
"{ s u u L 7XK.! ! / ! 8.7Xe + + + - - : : : : 3 3 i 4 d g h R U.aXaX`.g.;./ ! ! g g 8.7XiXS ; 3 5 6 9 9 R.pX>XF.D Y P Y Q.7X8X&X",
"u # # # # 6.7X6X2X[.eXhX X= = ; 3 : 4 i 5 i p p a p p d 4 g R :XP./.gX`.].g.s./ n y.0XtX6 ; ; 3 a 6 g 9 >XF.U I g g g f I 6X..d ",
"; # + # - = n I.hXGXJXZX<.3 3 3 p p p a a a a d d d s i 5 s H { E a.tXGXvX.X|.l.$XtXCXN d 5 p p d g p  .#.! U I g s s s c F.f : ",
"# + + # > 3 9 / oXJXIXtXB 6 6 6 a d d d d g g f g d s u 3 s D 9 y 4.c.KXUXIXIXKXGXKXu.2.T g g P I I s J.! ! ! R U I d a ' W d 3 ",
"; = = : : d I =.j.xXGXi.E d d d d g g f h g I I I I s u 2 Y 9 5 6 ,.9.bXSXtXcXMXSXGX5./ ~ ! ! ! ! U Y F.U ! ! R R I g 4 Q.Y s 3 ",
": : 3 4 d g T *.g.`.NXN h d g g g I T I T I T T T I d u p C I 6 i 6 F w.m ,.~ 3.7.jX8.^ =./ *.! I W M.!.d ! ! R R I d q F.Y g p ",
"p p d d d d s U *.+.aX5 g g I I I I R T U R ! R R P p p f Q Q P I I L ; a g I ! U n R.W *.! W Q $.=XpX:X# w ! ! R I ; S...W I s ",
"g 6 u % 3 8 c Q -.o.7X- g I I R R ! ! ! ! ! ! R s a d f &.>.K.^ c  .+ ; d I R ^ g P E.L.o.F.!.;X0.D R.iX; o ; w g 7 ` 5XF.Q W P ",
"Y U C W Q -.>.V.V.{.5X# f R R R ! ! ^ ^ ^ ! s p d g R =.k.{.&X7X-X- = ; g R ^ d f ! :XZXaXE.L u 3 5 x gXG o . X o S.K U #.K.Q W ",
"=X!.!.=X!.%X&X&X8XpXgX9 g R ! ^ ^ ^ ^ R s 2 3 d T / j.[.[.5XpX7X' # : 3 s ! g s R P.6XgXG u u p p s B NXmXu.e 7 q.n P I W 5X&X2X",
"7 ; # - ; ; 5 0 { gXZXe.h ^ ! =.! I p 2 u u p I p.].eXyXZXqXP.<X{ ; u p s g s ] ;XV ) ^.i p d d g g c hXBXwXr.@.4X5 s I o.S.B e ",
"o o + + + # # ; u e.NXcX,.~ U g p 5 3 3 p s U ;.'.eXLXPXyXd.! Z. .; u p u g ! 5Xb.1 V ;Xs g f I I U Y :XF.f w g { -X] q.q . . o ",
"o o o + + # - : 3 g qXFXi.R I g P g f P Y Q -.J.sXZXPXGX|.a.R e.q.s 8 h ! r.E.-X*Xn.B.7Xx g I Y U I f 4Xx d s s G 7XZ.= . . . o ",
". o o + + # # : : d e.ZXdXt./ p.=.=.^ *.-.M.&XZ.B <.|.MXY./ M e.;X=.r.!.C.b + . . 7 X.gXdXF.x P f P | >X3 5 p p q.J . . . . . . ",
"o o o # # # # ; 3 3 8.aX<XuXrX.X].'.>.L.;X6.- = ; 7 r <.iXF w 0.7X>X6.; o o . o o o o ; 6.aX(.[ @.%X4X6X; = 3 e m . . . . . . = ",
"o o + + # = ; : 3 3 R.| ^ s.ZXGXZXiX6X7.= . . = - ; 3 7 7.-Xr.>X0.; + + + + + + + + # # + ; w.7XS.A e e 0.e X ` . . . . . . . . ",
"o + + # # - > : u b [ I ! /  XAXfXu.6 ; - - - = - - - ; : Z.7XA.> : : : : ; ; - ; ; : : ; ; # R.X     . o q S.` o . . . o o o o ",
"# - - ; : : : u % H s g g U T.wX,.T r 7 3 ; ; ; ; ; ; - : u >XS.3 3 5 3 p a p a p a : 3 3 3 ; 0.. . o + - - 8 b o o o o o o + = "
};
