/* XPM */
static char *West64[] = {
/* columns rows colors chars-per-pixel */
"64 64 256 2",
"   c #02342E",
".  c #023730",
"X  c #023D34",
"o  c #024236",
"O  c #024539",
"+  c #024B3D",
"@  c #0A493D",
"#  c #02523E",
"$  c #03583A",
"%  c #034E41",
"&  c #0C4E41",
"*  c #035444",
"=  c #035749",
"-  c #025A45",
";  c #035C4B",
":  c #0B5848",
">  c #045F50",
",  c #026247",
"<  c #03634C",
"1  c #026A4D",
"2  c #036A46",
"3  c #046453",
"4  c #046658",
"5  c #036B54",
"6  c #046C5A",
"7  c #0A6652",
"8  c #0C6A55",
"9  c #03734D",
"0  c #027347",
"q  c #037355",
"w  c #04735B",
"e  c #027C55",
"r  c #037B5C",
"t  c #09735A",
"y  c #146551",
"u  c #146A54",
"i  c #146E58",
"p  c #1B6551",
"a  c #1C6A55",
"s  c #15735C",
"d  c #047563",
"f  c #057768",
"g  c #047B64",
"h  c #037C69",
"j  c #087761",
"k  c #087D64",
"l  c #157C62",
"z  c #236552",
"x  c #028A4F",
"c  c #038354",
"v  c #02835D",
"b  c #038B5C",
"n  c #028B55",
"m  c #02935C",
"M  c #029B5D",
"N  c #038464",
"B  c #04836C",
"V  c #038B64",
"C  c #048B6C",
"Z  c #08826B",
"A  c #0C8B6E",
"S  c #0D8265",
"D  c #038571",
"F  c #048C73",
"G  c #038E78",
"H  c #0A8C72",
"J  c #039265",
"K  c #03936C",
"L  c #029C64",
"P  c #029B6D",
"I  c #0A9868",
"U  c #049374",
"Y  c #04947B",
"T  c #039B73",
"R  c #059B7C",
"E  c #089778",
"W  c #138066",
"Q  c #03A05D",
"!  c #03A463",
"~  c #03A46C",
"^  c #02AB66",
"/  c #03AC6B",
"(  c #03A375",
")  c #04A47B",
"_  c #03AC74",
"`  c #03AB7B",
"'  c #09A378",
"]  c #03B167",
"[  c #03B26B",
"{  c #03BB6E",
"}  c #04B373",
"|  c #03B37B",
" . c #03BC73",
".. c #03BC7C",
"X. c #0EB17D",
"o. c #15AD77",
"O. c #3BAE77",
"+. c #26A975",
"@. c #03C374",
"#. c #03C47B",
"$. c #02CB75",
"%. c #03CB7B",
"&. c #08CF7D",
"*. c #02D37C",
"=. c #02DB7D",
"-. c #02D377",
";. c #03E27F",
":. c #039D82",
">. c #05A284",
",. c #03A48A",
"<. c #04AC82",
"1. c #05AA8B",
"2. c #08AB8A",
"3. c #03AA90",
"4. c #03B483",
"5. c #05B48B",
"6. c #03BB83",
"7. c #03BC8B",
"8. c #09B785",
"9. c #06B593",
"0. c #06BB94",
"q. c #07BD99",
"w. c #14B483",
"e. c #14B78B",
"r. c #03C384",
"t. c #03C48C",
"y. c #03CB84",
"u. c #03CC8B",
"i. c #0ACB8B",
"p. c #0BC387",
"a. c #04C394",
"s. c #06C59C",
"d. c #03CA93",
"f. c #05CB9B",
"g. c #0AC895",
"h. c #02D584",
"j. c #03D48C",
"k. c #03DB83",
"l. c #04DB8B",
"z. c #0ADB85",
"x. c #03D393",
"c. c #04DB92",
"v. c #04DB9C",
"b. c #09D89C",
"n. c #08D497",
"m. c #12DA8C",
"M. c #14D487",
"N. c #13DC9C",
"B. c #15D794",
"V. c #1CC584",
"C. c #09CCA2",
"Z. c #08CDA8",
"A. c #06D6A9",
"S. c #04DCA5",
"D. c #05DCAA",
"F. c #08D8A4",
"G. c #07DAB2",
"H. c #16DAA2",
"J. c #03E483",
"K. c #02E48B",
"L. c #03EC85",
"P. c #03EC8B",
"I. c #0CE38C",
"U. c #08E88E",
"Y. c #03E592",
"T. c #04E59B",
"R. c #04EC93",
"E. c #04EA9A",
"W. c #0BEC93",
"Q. c #0BE499",
"!. c #02F287",
"~. c #03F58A",
"^. c #03F98A",
"/. c #0AF48E",
"(. c #03F292",
"). c #03F49B",
"_. c #04F995",
"`. c #04F99C",
"'. c #0CF592",
"]. c #0BF29C",
"[. c #0CF894",
"{. c #0AF998",
"}. c #14EE9D",
"|. c #1AE996",
" X c #12F094",
".X c #1CF49E",
"XX c #19F99C",
"oX c #14F799",
"OX c #04E3AC",
"+X c #08E9A7",
"@X c #08E7B8",
"#X c #0BF3A5",
"$X c #0CF3AA",
"%X c #09F9A6",
"&X c #0BF8B4",
"*X c #12E5A3",
"=X c #17E8A6",
"-X c #12E7B4",
";X c #14ECB2",
":X c #12F3A4",
">X c #15F4AD",
",X c #1BF9A3",
"<X c #1BF9AC",
"1X c #1AF5A8",
"2X c #1CF4B3",
"3X c #1CFAB4",
"4X c #1BFABC",
"5X c #15F9B9",
"6X c #22C787",
"7X c #2FC795",
"8X c #2CD792",
"9X c #23E89C",
"0X c #24E9A7",
"qX c #21EDB4",
"wX c #2BECBC",
"eX c #23F5AC",
"rX c #23F9A2",
"tX c #2CFAAD",
"yX c #24F7AA",
"uX c #21F5B2",
"iX c #21F9B3",
"pX c #23FABB",
"aX c #2BFAB3",
"sX c #2BFBBC",
"dX c #31F8AD",
"fX c #36FAB4",
"gX c #3DFBBB",
"hX c #33F8BC",
"jX c #08EFCB",
"kX c #0BF9C5",
"lX c #14EDC5",
"zX c #17F3C4",
"xX c #1DF6C7",
"cX c #19FBC5",
"vX c #1BF9D2",
"bX c #23FACA",
"nX c #2EFACB",
"mX c #27FAC3",
"MX c #27FADA",
"NX c #34FBC3",
"BX c #34FCCA",
"VX c #3DFCCA",
"CX c #38F9C5",
"ZX c #3DFCD3",
"AX c #37FCD7",
"SX c #3FF9E2",
"DX c #45FBBC",
"FX c #43FCCC",
"GX c #42FBC2",
"HX c #44FCD6",
"JX c #4DFCD3",
"KX c #4BFDDF",
"LX c #50FBC9",
"PX c #57FCDB",
"IX c #47FDE1",
"UX c #5AFDE7",
/* pixels */
"3 3 3 4 4 4 3 3 q r r w w 5 ~ T B Z h w d 6 w 6 6 6 6 5 5 5 b =.q t g g k Z B B D D D B r q q Q * - > ; < < V 0 + + % = ; > > > ",
"4 4 4 4 6 5 5 - q r g g d * L V F V B N h h h h h g w 6 q r 5 @.e B B H F F F U Y Y Y Y U B v ! 6 d 4 * , V J.- % ; > > 3 4 4 4 ",
"6 w d d d 4 3 * e g h 4 + 5 6.K C B B B D D B B D C g r r g v h.~ C K U R U D C U :.,.>.R g  .L B g - < } ^.^.- > 4 4 4 4 4 4 6 ",
"f h f f g 6 * - V - + % V u.Y.) C e 5 5 1 < 5 1 5 5 q N V T 6.'.1Xn.9.<.C N r h N R >.Y N $.^.L h < r  .! V *., 4 6 6 d d d d f ",
"h D D B d * * r ~ , r ` c.sX>Xc.7.` P V V N N N V J ..L.!.^.^.rXCXNXxXD.7.T v N V V P ( =.k.L./ r J #.$.0 $ n Q 3 d f h f h h h ",
"D D D 6 % % 5 | k...j.:XVXpXc.j.h.k.y.r.4.4.| 6.r.P.J.b # + , b  .Q.mXmX>Xd.t.6.6.t.h.*.c m *.L.r.l.!.@.M x M =.= f h h D h D D ",
"D 6 = + * e ` h.%.h.>XPX2Xd.<.T V b L { =.L.P.P.^.{ 2 - * * + + = 7 t K X.|.~.R.L.^.J.! ^ #.L.^.!.J.=.=.=.J.!.^.e g D D D D G G ",
"% O % < V | k.^ m t.iX3Xu.` P v r r q q r v ^ L.-.5 3 - - * * + % = ; = @ X , ^ L.^.L.L.J.{ m q , - - - $ $ , e ^ > h h h d 4 * ",
"* < v P ..P.J.#.y.j.>Xn.( V v q q q q q q q q L J.5 5 3 < - = * * * % @ O O O O + L ;.m , - - - - * - - * * # + e e 3 ; * # # + ",
"v J _ h.^. ., q V T y._ N e q q q 5 5 5 5 5 q 5 =.v q 5 5 3 ; - = * * * % % + + + + c - - - - - - - - * * * # + + ! < < < ; , t ",
"` y.$.Q *.2 3 q V C #.V e q q 5 5 5 5 5 5 5 5 5 m [ r w 5 5 3 3 ; ; = - = * * * * * 1 - - - - - - - - - * * * * * b P r g V T ( ",
"Y.~.@.@.c 3 q g B v $.r e q 5 5 5 4 5 5 6 6 6 w 1 k.q g r d d r d w 4 3 > ; ; - - - , * * - ; ; ; - - - * * * - ; < l.<.5.7.7.u.",
"N < - $ * g N C C V $.q q 5 5 5 4 6 6 6 6 w w w 5 J.V g h N B B h h h g d 6 5 3 3 - , * - - ; ; ; ; ; - = * - ; 3 7 | +XA.S.+XR.",
"7 7 ; = - Z F R A _ %.q 5 6 5 6 6 6 w w d d f 5 N c.u.V N C F F D D D h h h g g w 5 2 * - ; ; ; ; ; ; ; ; = ; ; 3 w C $X5XBX#XN ",
"d 8 < < - B R E P j...N t w w 6 w d d d f g 6 5 <.>XsX6.V g Y Y R Y Y U U D C h N q q + = ; ; - ; ; ; ; - ; ; 3 4 d h OXHXcX<.B ",
"h w 5 7 < r F U 5.:X4.H Z w w d d f f h f * - T *XJXHXaX4.V r U >.,.,.:.:.Y Y C g 5 n O - ; > > 3 3 4 3 3 > 3 4 6 w Z 7.ZXC.Y G ",
"Z k t w q w C 5.A.HXf.R H Z w f f h h 3 X - P =XGX=X7.B.yX| T N V >.5.9.1.Y N r v C  .O - ; 3 4 4 4 4 4 4 4 4 6 d d k F $XY >.Y ",
"H Z w r r N ) s.lXUXxX>.k 5 = * = * X + q / !..X| K H C } (.x.7.<.) ) ) K C P ( 8.z.P.* % 7 4 4 4 6 6 6 6 4 4 4 6 d f 4 c.Z :.Y ",
"F Z N h N K g.hXKXIXAXwXp.J 2 - - 2 r L $.^.^.J Z B N N N E.%X$X+XOXf.a.7.t.u.B.6X6Xu.~ = ; 4 6 d d f d f d 6 d j d j > h.j :.E ",
"Y F C V C k.1XH.A.G.G.F.].oXW.=.#.#.%.*.@.P.!.r r h h g 6.$XNXBX4X5X>X+XT.R./.6XO.+.w.T.r * 3 d f f h h f f f f d d 4 = %.r :.:.",
"R T U V ..~.~ H 5.q.q.9.B.DXXX^.oXdX.X@.! J.L.t g N r ( +XmXCX4X>X=XQ.I.^.^.(.m.6Xe.s.&Xg.w % 6 h h h h h h h f d d 4 * [ J R >.",
"H C V | ^.[ < w B :.>.X.fX[.%.} ~  .rXW.#.R.'.q 5 w K d.5XBX$Xt.( K N r v ~ =.[.oX3XmXAXmXT ; o 6 D D D D D h f f d 6 + ! [ H R ",
"T ` r.!.^.< * < 6 t K eXfXr.T V V N ~ [.E.%X%XB g K r.$XaXn.) K N r q r q r r N ( 6.s.A.4XQ.v + O 4 g D D D D h h f ;   m =.b V ",
"l.P.^.^.^.;.b : < N }.aXh.T V N N q g r.&XkX&Xg.<.u.`.:X4.V N q q q 5 5 q t r r S H R ) r.{.%.V 3 + .   X X % O % %     x ^.y.k.",
"2 X o 2 L $._.U.p.eXsXE.<.T C N t w r ) BXMXxXpX%X{.U.J N q q q 5 5 5 5 5 5 5 q q S C C K %.(.r.( V < + o X X X X X O o ! ^.;.Q ",
"X X     . O 2 ' *XmX4Xs.<.R F N r 4 t Z NX4X7X8XXXI.N r q 5 5 5 5 5 5 3 5 3 5 5 6 t w g N K ).%XK.r.L c q < 2 < 5 4 5 J ~. .+ X ",
"o X X X O + * 7 h f.cXS.,.U H k w 6 3 I fX<X9X9X XC r w q 5 1 7 7 < 7 7 7 u 7 7 u t t t A ) 1XhX).^.^.L.=. ._ ~ T ) i.tX} * + o ",
"@ O o O % * - 6 h Y f.pX0XT B h d 6 O M.W.6.].[.#.v r q 5 5 7 7 7 y y y p y u a u i s W U i.FX].| V v J ~ @.z.}.3X2XNXp.6 7 < * ",
"; ; % @ * * 3 4 r D F 4.3X1XV h 6 > v {.6.P R._.P r t 1 5 7 y y y p p p p p a a a i s A ` NX#X| N q 5 q w N T <.b.VXpXC r 6 7 3 ",
"4 4 4 ; * ; - 4 w f h r ( [.%.< 7 e.2X%Xr...(.).C r 6 6 8 y y p p p z z z z z z z a W T >X2X7.U r 4 3 3 4 w C ) 7.CXH.B B f d 4 ",
"d w 6 4 4 < 3 4 4 w q t t ~ ^.|.tXFXmX=XE.E.`.E.K N t 7 y y p p z z z p y y : : ; q T E.CXj.<.B d 6 4 4 6 w B R 4.eXw.H D h d d ",
"f f d d d 6 3 4 6 6 w w t q } dX'.u.4.<.` 6.E.%X' K S s y p z z z z z = X o - 1 v | R.CXhX4.T B g d 6 6 w d H E ` ,XK F H D B B ",
"D D h h h g 6 3 5 6 t t t C ` U._ K C C C ( x.FXN.T A l a z z z z z @   # 2 e J } R.<XiXGX} V U H f f d f h D R ( ~.N Y F G F D ",
"G Y G D h h g * - , 5 q K 6.x.l.T N q 5 r N ` 2XFXN.T r 8 : & & @ . + 1 v J / *.!.h.[ k.LX..J N Y :.G Z h D B N _ J.5 r F Y :.Y ",
":.G Y G Y D h < - q V ) a.F.3Xn.K k 4 < 6 h U ` *XJXhXi.~ v q e v L ~  .*.J.^.^.J.~ ~ z.tX(.5.R F Y D d < < r ` j.k.P q 2 w D Y ",
"6 g B B F F r 5 v ~ 6.N.qXnXUXn.U f 4 ; 3 w C ) 7.NXVXsXhXtX^.^.^.^.J.-.%.J.^.^.^.^.!.P.).sX;XA.s.2.T H P _ t.v.^.!.y.` C r 1 < ",
"g t 5 r r r V _ k.^.^.tXqXNXHXf.R h 4 3 3 4 w N 6.3Xx.4.T V J #.~.k.! M { L.^.L. .J v P 6.>XUXvXjX@XS.v.v.T.).!.J.J.L.!.h.| T J ",
"h.@...` | 4.k.^.^.L.%.<.5.F.FX7.Y Z d 4 - o - U d.).7.R Z w r Y h.~.P.P.^.L.] q 5 5 q S R 0.lXUXMXkX5X>X.XJ. .V C V P ..^.^.!.J.",
"5 2 e / ;.^.^.J.! r N U ` t.1X6.U B 5 + o * e ` v.).| V g d h T R.yX_./. .r 5 , , ; < r H 5.Z.lXIXJXhXN.` Z N B h N N P *.^.=.L ",
"< < < 5 q =.;.q 5 < 5 r K | ^.r.V q - - 1 v T u.(.(.c.) r 5 h <.:XiXc.( N w < - * - : 6 Z R 9.C.-XFX3X` C N h h g 6 q P L.n - - ",
"f N N g e J.^ 3 ; = ; 3 r P ^.y.` P J J T |  .] m n L } | r.f.+XpX*X5.T B w < * * % * 7 w B ) 9.f.iX#X' F h h h d 4 5  .L 5 r g ",
"Y U N r P !.v 4 ; = ; > w V ^.l.a.t.4.v 2 O O + # * ; 6 r H d.4XBXD.9.R Z d < * * * = ; 6 S H ) OX:XW.' C h h f 6 - 1 *.v B F F ",
"Z r v ( j.L.q 6 4 4 4 w g V ^.~.l.v + + O + % * * = 3 6 N H 1.zXZX@X0.) H k 6 7 > > > ; + - q 4.+X_.R.) B t ; + X + N J.b Y :.R ",
"N P | x.~.-.B h h d h h D L ^.{ + O o + % % * * * ; 3 w Z F 1.A.AX-X0.2.Y Z f t 4 4 4 O O = N v.>XaX`.6.V 5 * + - N 4.!.J N v r ",
"5.j.R.^.^.$.U Y F F Y C 6 =.^ O + % % % * * = - ; > 3 r k H R q.nX-X7.1.:.H Z h f f ; v @.h.R.].aX].6.c.<.C V V ( t.v.^.@.T T | ",
"~.^.$./ L.J.K U F F B 5 ^ =.% % % * * = * ; ; > < < 8 t h N F 7.3X#X5.9.>.R G D F 6 K $.yXrXrXrX.XW.K.(.K.u.y.j.K.k.*.=.!.K.Y.Y.",
"~ q < 1 J ^.%.T K H K | /.e % * * = < 3 4 4 4 4 4 5 t w q g V u.).`.j.7.5.>.:.Y D V r./. Xm < ; 3 6 g q %.^.L.#.P V V J =.^.~.J.",
"< - * - - ] ^.(.T.D.@X<Xm.* * > 3 4 4 4 6 6 6 w w w w w 5 q V l.r.l.`.n.s.q.9.2.V d.'.0X9 < 7 4 w w r r L...P C V V N N V L.[ r ",
"; * % * - = r y.%XcXxXmXP 7 4 4 6 6 d d d d h g h g r 5 < q ~ ( H ) +XBX+Xv.d.a.OX1XhXC d r 6 r r N q / ..R T D N g r q V @.r 5 ",
"; * * = 3 4 r U a.vXIXH.Z j 6 d f h h h h h h h h B g 5 1 r P r N H 9.nXUXPXPXVXCXJX| U D B h B D F r %.T R R Y U D h q ] ~ r 5 ",
"> = = > 4 d H >.9.-XVX) H h h h h h D h D D D D D B h < q V N 6 4 Z ) wXqXT.*X$XiXFX( R :.:.:.:.>.U V y.Y :.:.:.Y G D 4 *.V r 5 ",
"7 3 4 4 h h F ,.0.x.aXN B h h h D D G G G Y G G U U h 1 q T V d 6 h P X.D H Y ,.` 0X} >.1.1.1.>.K ( x.J.h :.:.:.:.F h v %.P N w ",
"6 6 d h h h h U <...[.5 B D D F G G :.G :.:.:.R Y C 5 5 N | ( C D N m < d h Y :.E J *.T 1.) T ) y.K.[.I.- B ,.:.:.U 4 $.| T C g ",
"h w 5 3 1 r V ` 4.r.^.; B F G Y :.:.:.:.:.:.:.Y g 5 q r ` t.h.( P ^ % 3 h G :.,.B V k.h...y.J.J.[ V &. X; + ; H D 5 L L.$.( T V ",
"T P ~ ) ` 4.y.v.S.+XL.- D Y Y :.:.:.,.,.,.:.g 1 q r B ` d.S.R.^.;.* * 3 h Y ,.N N ( I.DXoX=.m < 5 5 v rXM O X . O $.( U ..y.` T ",
"Y.Y.K.K.K.R.(.(._.[.oXq h :.:.:.,.3.3.Y r < 1 r N P 7.A.OX).^.^.^ * ; 6 g :.h r ~ y./.rX! 5 6 w q g L tXdXo.2 - ] C C U R P.(.R.",
"2 - * - - , 1 r ! oXgX_ r :.,.1.,.V 5 1 1 1 q N R C.OX@XpX=X#.P.! - 5 5 g V r _ J.M ^ J.5 q r g Z V J tXgX|.#.$.!.1 r C | -.M c ",
"o + + # * - - , < } sX*XA H U g q 5 5 5 5 r V 4.f.OXbXAXD.) C $./ 1 5 q q N _ P. .0 M J.r g B V F K C I.y.V N N / =.!  .c o o o ",
"o O + + * * - , 5 r Q.sX6.N g r g r v V P ` 6.x.E.4XKXmX0.R H } @.q N V _ #.K.=.;.$.%.^.V N H R T C V L.N k d g P ^.$.# X o o o ",
"o + + + * * - - < t | aX:X4.T ) ) ` ` 4.6.j.P. .v K 8.uXg.E B _ J.4.y.k. .c + X o 9 { XX|. .V V v V } L.3 d d r @.! o X X o o o ",
"O + + % * - ; < < 5 _ oXU.R.:XF.f.a.d.j.J.^ * O * ; 4 K W.U B } ^.L.^ - o O O O O + O - /  Xm._ #.J.^.L., * 6 r n X X X o o o o ",
"+ % % * * ; ; < 5 < =._ ( 4.2XVX5X).P.~ # o @ O @ * ; 7 ~ J. .L.] - * * * # * * * * = * * ,  .^.$.m 9 0 ] 9 . Q X o o X o o O O ",
"% % * * * ; ; < < m / K U T c.pX#X| 5 = = * * * * * * ; ; @.^.$.- , < < 3 ; - - - ; ; - < 3 - -.  . X o + e $.! o o o O O O O + ",
"= ; ; ; < 3 3 4 , I r r N Z 6.K.V g t 6 4 7 3 > 3 < ; ; < 2 J.$.< 5 5 6 6 6 d d d d 6 5 7 6 , ] X O O + * - q n O O O O O O % * "
};
